<?xml version="1.0" encoding="UTF-8"?>
<svg id="Objects" xmlns="http://www.w3.org/2000/svg" xmlns:xlink="http://www.w3.org/1999/xlink" viewBox="0 0 27 27">
  <defs>
    <style>
      .cls-1 {
        fill: url(#linear-gradient);
      }

      .cls-2 {
        fill: url(#radial-gradient-3);
      }

      .cls-3 {
        fill: url(#radial-gradient-4);
      }

      .cls-4 {
        fill: url(#radial-gradient-2);
      }

      .cls-5 {
        fill: url(#linear-gradient-3);
      }

      .cls-6 {
        fill: url(#linear-gradient-4);
      }

      .cls-7 {
        fill: url(#linear-gradient-2);
      }

      .cls-8 {
        fill: url(#linear-gradient-6);
      }

      .cls-9 {
        fill: url(#linear-gradient-7);
      }

      .cls-10 {
        fill: url(#linear-gradient-5);
      }

      .cls-11 {
        fill: url(#radial-gradient);
      }
    </style>
    <linearGradient id="linear-gradient" x1="7.5" y1="21" x2="7.5" y2="27" gradientUnits="userSpaceOnUse">
      <stop offset="0" stop-color="#b5b5b5"/>
      <stop offset=".22" stop-color="#ccc"/>
      <stop offset=".49" stop-color="#e1e1e1"/>
      <stop offset=".75" stop-color="#ededed"/>
      <stop offset="1" stop-color="#f2f2f2"/>
    </linearGradient>
    <linearGradient id="linear-gradient-2" x1="7.5" y1="9" x2="7.5" y2="18" gradientUnits="userSpaceOnUse">
      <stop offset="0" stop-color="#b5b5b5"/>
      <stop offset=".11" stop-color="#ccc"/>
      <stop offset=".24" stop-color="#e1e1e1"/>
      <stop offset=".37" stop-color="#ededed"/>
      <stop offset=".5" stop-color="#f2f2f2"/>
      <stop offset=".63" stop-color="#ededed"/>
      <stop offset=".76" stop-color="#e1e1e1"/>
      <stop offset=".89" stop-color="#ccc"/>
      <stop offset="1" stop-color="#b5b5b5"/>
    </linearGradient>
    <radialGradient id="radial-gradient" cx="14.99" cy="2.83" fx="14.99" fy="2.83" r="9.59" gradientUnits="userSpaceOnUse">
      <stop offset="0" stop-color="#f2f2f2"/>
      <stop offset=".36" stop-color="#efefef"/>
      <stop offset=".57" stop-color="#e7e7e7"/>
      <stop offset=".75" stop-color="#d8d8d8"/>
      <stop offset=".91" stop-color="#c4c4c4"/>
      <stop offset="1" stop-color="#b5b5b5"/>
    </radialGradient>
    <radialGradient id="radial-gradient-2" cx="11.95" cy="24.23" fx="11.95" fy="24.23" r="9.66" xlink:href="#radial-gradient"/>
    <linearGradient id="linear-gradient-3" x1="19.5" x2="19.5" xlink:href="#linear-gradient-2"/>
    <linearGradient id="linear-gradient-4" x1="19.5" y1="6" x2="19.5" y2="0" gradientUnits="userSpaceOnUse">
      <stop offset="0" stop-color="#b5b5b5"/>
      <stop offset=".21" stop-color="#cbcbcb"/>
      <stop offset=".49" stop-color="#e0e0e0"/>
      <stop offset=".75" stop-color="#ededed"/>
      <stop offset="1" stop-color="#f2f2f2"/>
    </linearGradient>
    <linearGradient id="linear-gradient-5" x1="15" y1="19.5" x2="27" y2="19.5" gradientUnits="userSpaceOnUse">
      <stop offset="0" stop-color="#b5b5b5"/>
      <stop offset=".09" stop-color="#c4c4c4"/>
      <stop offset=".25" stop-color="#d8d8d8"/>
      <stop offset=".43" stop-color="#e7e7e7"/>
      <stop offset=".64" stop-color="#efefef"/>
      <stop offset="1" stop-color="#f2f2f2"/>
    </linearGradient>
    <linearGradient id="linear-gradient-6" x1="9" y1="13.5" x2="18" y2="13.5" xlink:href="#linear-gradient-2"/>
    <radialGradient id="radial-gradient-3" cx="2.84" cy="20.99" fx="2.84" fy="20.99" r="9.63" xlink:href="#radial-gradient"/>
    <radialGradient id="radial-gradient-4" cx="24.12" cy="6.04" fx="24.12" fy="6.04" r="9.58" xlink:href="#radial-gradient"/>
    <linearGradient id="linear-gradient-7" x1="12.02" y1="7.5" x2=".02" y2="7.5" xlink:href="#linear-gradient-5"/>
  </defs>
  <path class="cls-1" d="m9,21v4.5c0,.83-.67,1.5-1.5,1.5s-1.5-.67-1.5-1.5v-4.5h3Z"/>
  <rect class="cls-7" x="6" y="9" width="3" height="9"/>
  <path class="cls-11" d="m15,4v8h-3v-7.5c0-.83-.67-1.5-1.5-1.5s-1.5.67-1.5,1.5v1.5h-3v-2C6,1.79,7.79,0,10,0h1c2.21,0,4,1.79,4,4Z"/>
  <path class="cls-4" d="m21,21v2c0,2.21-1.79,4-4,4h-1c-2.21,0-4-1.79-4-4v-8h3v7.5c0,.83.67,1.5,1.5,1.5s1.5-.67,1.5-1.5v-1.5h3Z"/>
  <rect class="cls-5" x="18" y="9" width="3" height="9"/>
  <path class="cls-6" d="m21,1.5v4.5h-3V1.5c0-.83.67-1.5,1.5-1.5s1.5.67,1.5,1.5Z"/>
  <path class="cls-10" d="m27,19.5c0,.83-.67,1.5-1.5,1.5h-10.5v-3h10.5c.83,0,1.5.67,1.5,1.5Z"/>
  <rect class="cls-8" x="9" y="12" width="9" height="3"/>
  <path class="cls-2" d="m12,18v3H4c-2.21,0-4-1.79-4-4v-1c0-2.21,1.79-4,4-4h2v3h-1.5c-.83,0-1.5.67-1.5,1.5s.67,1.5,1.5,1.5h7.5Z"/>
  <path class="cls-3" d="m27,10v1c0,2.21-1.79,4-4,4h-2v-3h1.5c.83,0,1.5-.67,1.5-1.5s-.67-1.5-1.5-1.5h-7.5v-3h8c2.21,0,4,1.79,4,4Z"/>
  <path class="cls-9" d="m12,6v3H1.5c-.83,0-1.5-.67-1.5-1.5s.67-1.5,1.5-1.5h10.5Z"/>
</svg>